<svg id="twogoodlogo" width="248" height="252" viewBox="0 0 248 252" fill="none"
                xmlns="http://www.w3.org/2000/svg" class="go1438215768"
                style="transform: translate(0px, 0px); translate: none; rotate: none; scale: none;">
                <path
                    d="M117.079 0C107.276 0 97.8753 3.98091 90.9437 11.0669C84.012 18.1529 80.1185 27.7636 80.1185 37.785C80.1185 47.8064 84.012 57.4171 90.9437 64.5031C97.8753 71.589 107.276 75.5699 117.079 75.5699C126.882 75.5699 136.283 71.589 143.215 64.5031C150.147 57.4171 154.041 47.8064 154.041 37.785C154.041 27.7636 150.147 18.1529 143.215 11.0669C136.283 3.98091 126.882 0 117.079 0Z"
                    fill="currentColor"></path>
                <path
                    d="M36.9825 0C27.1795 0 17.7788 3.98091 10.8472 11.0669C3.91551 18.1529 0.0219727 27.7636 0.0219727 37.785C0.0219727 47.8064 3.91551 57.4171 10.8472 64.5031C17.7788 71.589 27.1795 75.5699 36.9825 75.5699C46.7856 75.5699 56.1863 71.589 63.118 64.5031C70.0496 57.4171 73.9432 47.8064 73.9432 37.785C73.9432 27.7636 70.0496 18.1529 63.118 11.0669C56.1863 3.98091 46.7856 0 36.9825 0Z"
                    fill="currentColor"></path>
                <path d="M92.4513 81.8555L80.0915 94.4907L141.705 157.478L154.065 144.843L92.4513 81.8555Z"
                    fill="currentColor"></path>
                <path d="M141.709 81.8712L80.0943 144.859L92.4541 157.494L154.068 94.5066L141.709 81.8712Z"
                    fill="currentColor"></path>
                <path d="M12.3596 81.8659L0 94.5011L61.6136 157.489L73.9734 144.854L12.3596 81.8659Z"
                    fill="currentColor"></path>
                <path d="M61.6174 81.8816L0.00366211 144.87L12.3635 157.505L73.9771 94.5178L61.6174 81.8816Z"
                    fill="currentColor"></path>
            </svg>
